<?xml version="1.0" standalone="no"?>
<!DOCTYPE svg PUBLIC "-//W3C//DTD SVG 20010904//EN"
 "http://www.w3.org/TR/2001/REC-SVG-20010904/DTD/svg10.dtd">
<svg version="1.0" xmlns="http://www.w3.org/2000/svg"
 width="1280.000000pt" height="640.000000pt" viewBox="0 0 1280.000000 640.000000"
 preserveAspectRatio="xMidYMid meet">

<g transform="translate(0.000000,640.000000) scale(0.100000,-0.100000)"
fill="#000000" stroke="none">
<path d="M6380 4471 l-225 -218 0 -614 c1 -550 3 -621 18 -679 44 -166 115
-288 231 -398 102 -96 194 -154 320 -199 136 -48 394 -58 544 -22 80 19 263
97 276 117 3 5 -76 89 -174 187 l-179 179 -39 -12 c-49 -15 -178 -16 -223 -1
-122 39 -219 125 -264 235 -22 57 -28 89 -33 183 -4 90 -2 115 9 122 8 5 145
9 305 9 l291 0 231 235 c128 129 232 237 232 240 0 3 -240 6 -532 7 l-533 3
-3 423 c-2 335 -5 422 -15 422 -7 0 -114 -98 -237 -219z"/>
<path d="M5365 4200 c-312 -78 -532 -273 -633 -559 l-27 -76 -3 -623 -3 -622
238 2 238 3 5 560 5 560 28 60 c70 151 219 238 396 234 l75 -2 178 182 c98
100 178 184 178 186 0 12 -146 69 -229 90 -122 31 -333 34 -446 5z"/>
<path d="M7800 4003 c0 -120 5 -225 10 -233 7 -12 57 33 242 217 l233 233
-242 0 -243 0 0 -217z"/>
<path d="M9255 4213 c-306 -20 -550 -147 -711 -371 -110 -152 -144 -288 -144
-568 0 -351 54 -500 249 -694 182 -180 414 -262 696 -246 208 12 377 77 533
206 93 78 151 153 206 265 69 140 76 184 76 458 l0 237 -333 0 c-294 0 -335
-2 -357 -17 -33 -22 -450 -435 -450 -445 0 -4 137 -8 305 -8 351 0 339 4 250
-89 -148 -155 -374 -170 -550 -35 -47 36 -110 132 -129 198 -24 82 -22 266 4
342 38 110 108 190 208 239 111 55 114 55 559 55 297 0 413 3 413 11 0 26 -96
153 -164 216 -109 102 -254 181 -397 217 -74 18 -203 32 -264 29z"/>
<path d="M10923 4195 c-223 -57 -417 -198 -531 -385 l-39 -65 451 -5 c447 -5
452 -5 510 -29 45 -18 79 -43 133 -97 122 -122 151 -114 -385 -114 l-459 0
-163 -162 -163 -162 6 -96 c29 -474 496 -819 1009 -746 58 8 139 27 180 42
102 36 102 36 106 -13 l3 -43 225 0 224 0 1 53 c0 28 1 309 1 622 0 563 0 571
-22 640 -89 279 -307 478 -615 561 -128 34 -338 34 -472 -1z m597 -1158 c0
-43 -116 -157 -199 -195 -49 -23 -69 -26 -161 -26 -96 -1 -110 2 -164 28 -86
42 -196 150 -196 193 0 11 64 13 360 13 296 0 360 -2 360 -13z"/>
<path d="M8042 3697 l-242 -243 0 -551 c0 -303 3 -558 6 -567 5 -14 36 -16
245 -16 l239 0 0 810 c0 446 -1 810 -3 810 -1 0 -112 -109 -245 -243z"/>
<path d="M3606 3505 c-71 -41 -130 -75 -132 -75 -2 0 -45 -24 -96 -53 -51 -30
-126 -71 -165 -93 -40 -21 -73 -42 -73 -45 0 -4 18 -18 39 -32 l39 -26 249
186 c234 175 284 213 273 213 -3 0 -63 -34 -134 -75z"/>
<path d="M1149 3024 c-275 -205 -328 -249 -359 -299 -33 -54 -30 -114 8 -152
43 -42 446 -344 802 -599 107 -77 247 -178 310 -224 63 -46 142 -103 175 -127
33 -23 98 -70 145 -104 47 -34 108 -78 135 -97 72 -51 373 -267 564 -405 153
-110 167 -118 205 -115 l41 3 3 480 c3 536 3 531 -66 597 -20 20 -152 118
-292 219 -140 100 -352 253 -471 338 -119 86 -319 230 -445 321 -126 90 -271
196 -323 235 -52 38 -111 82 -131 97 l-38 28 -263 -196z"/>
<path d="M10950 2107 l0 -109 -32 9 c-18 4 -73 8 -123 8 -105 -1 -151 -19
-219 -89 -61 -63 -79 -122 -74 -248 4 -118 19 -159 81 -221 82 -82 225 -111
341 -70 63 23 137 89 167 150 22 45 24 61 27 276 l4 228 -86 87 -86 87 0 -108z
m-70 -274 c43 -25 64 -63 68 -124 8 -106 -47 -169 -148 -169 -48 0 -56 4 -91
39 -38 38 -39 40 -39 115 0 72 2 78 33 112 48 53 115 63 177 27z"/>
<path d="M5433 2107 l-83 -85 0 -205 c0 -241 9 -281 78 -358 64 -71 109 -92
213 -97 72 -4 93 -1 138 18 l52 23 -58 59 c-52 53 -61 58 -101 58 -53 0 -93
20 -126 63 l-26 33 -2 288 -3 288 -82 -85z"/>
<path d="M6607 2112 l-79 -79 -1 -214 c-2 -254 4 -286 72 -361 65 -73 124 -98
231 -98 101 0 166 25 226 87 61 63 78 112 78 233 1 122 -16 170 -79 232 -78
77 -180 106 -291 82 -38 -7 -70 -14 -71 -14 -1 0 -4 47 -5 105 l-3 106 -78
-79z m281 -286 c15 -8 38 -26 52 -41 22 -24 25 -35 25 -105 0 -70 -3 -81 -25
-105 -51 -55 -100 -67 -163 -40 -57 24 -82 68 -82 145 0 53 5 71 24 99 40 55
113 76 169 47z"/>
<path d="M7918 2113 l-78 -78 0 -230 c0 -256 6 -283 73 -353 91 -95 264 -125
370 -64 l27 16 -57 58 c-53 54 -61 58 -103 58 -52 0 -100 25 -127 67 -16 24
-19 60 -23 315 l-5 289 -77 -78z"/>
<path d="M11180 1983 l0 -88 80 80 c44 44 80 83 80 87 0 5 -36 8 -80 8 l-80 0
0 -87z"/>
<path d="M8953 2025 c-95 -26 -166 -85 -202 -165 -18 -41 -20 -69 -22 -265
l-1 -220 78 0 79 0 5 200 c5 215 8 228 60 265 73 52 171 26 210 -55 18 -37 20
-62 20 -228 l0 -187 80 0 80 0 0 183 c0 100 5 199 10 219 24 85 144 123 216
69 54 -40 59 -59 61 -256 1 -99 3 -188 3 -197 0 -16 11 -18 80 -18 l80 0 0
223 c0 196 -3 227 -19 263 -81 178 -313 233 -481 114 l-29 -21 -38 25 c-82 54
-187 74 -270 51z"/>
<path d="M11623 2022 c-28 -10 -70 -31 -92 -45 -39 -26 -100 -108 -101 -134 0
-10 26 -13 95 -13 77 0 101 4 127 20 43 26 102 26 145 -1 35 -22 68 -73 58
-89 -4 -6 -72 -10 -162 -10 l-155 0 -59 -57 c-39 -37 -59 -65 -59 -80 0 -39
26 -89 72 -139 74 -81 184 -114 298 -90 57 13 66 12 76 0 9 -11 30 -14 85 -12
l74 3 3 204 c3 239 -5 282 -67 352 -80 91 -227 131 -338 91z m192 -442 c-38
-42 -118 -48 -172 -14 -43 27 -25 34 84 34 105 0 106 0 88 -20z"/>
<path d="M10051 2019 c-73 -22 -143 -80 -183 -154 -27 -50 -37 -211 -18 -281
28 -97 110 -171 224 -200 58 -14 76 -15 124 -5 31 7 76 22 99 32 41 20 123 99
123 119 0 6 -53 10 -145 10 -167 0 -207 11 -244 66 -33 47 -39 126 -14 174 43
83 151 107 218 49 19 -17 32 -35 29 -40 -3 -5 -51 -9 -107 -9 l-102 0 82 -80
82 -81 113 3 113 3 3 94 c3 85 0 100 -24 148 -61 125 -229 193 -373 152z"/>
<path d="M6125 2010 c-110 -15 -205 -92 -239 -193 -23 -69 -22 -212 3 -270 79
-184 320 -238 488 -110 70 54 103 137 103 260 0 123 -38 204 -123 261 -68 47
-144 64 -232 52z m111 -176 c128 -61 98 -279 -41 -300 -76 -11 -150 42 -156
111 -7 91 0 124 36 159 47 47 103 58 161 30z"/>
<path d="M7395 2007 c-56 -19 -81 -33 -127 -75 -34 -31 -68 -79 -68 -97 0 -3
53 -4 118 0 256 12 229 15 268 -28 19 -21 32 -42 29 -47 -4 -6 -73 -10 -163
-10 l-158 0 -58 -59 c-56 -57 -58 -61 -51 -97 22 -117 131 -213 263 -229 43
-6 98 2 160 20 17 6 22 3 22 -9 0 -15 11 -16 78 -14 l77 3 0 225 0 225 -27 46
c-34 57 -88 106 -147 132 -56 25 -162 31 -216 14z m195 -421 c0 -8 -16 -24
-36 -36 -42 -27 -111 -23 -152 7 -50 38 -41 43 77 43 89 0 111 -3 111 -14z"/>
<path d="M4913 1992 c-68 -27 -129 -76 -160 -129 -25 -44 -28 -58 -32 -161 -3
-110 -2 -115 28 -176 53 -109 144 -161 276 -160 185 1 297 115 299 304 l1 85
-119 3 -120 3 -73 -73 -74 -73 98 -5 c111 -6 123 -17 63 -58 -29 -20 -44 -23
-88 -20 -81 7 -132 65 -132 153 0 62 22 111 62 135 29 18 50 20 191 20 148 0
157 1 157 19 0 29 -94 107 -156 130 -67 26 -162 27 -221 3z"/>
<path d="M11263 1876 l-83 -81 0 -213 0 -212 84 0 c75 0 85 2 91 20 7 23 3
560 -4 564 -3 2 -43 -34 -88 -78z"/>
</g>
</svg>
